# xmcd CD database file
#
# Track frame offsets:
#	150
#	12197
#	24784
#	34678
#	47819
#	58409
#	73449
#	89078
#	105273
#	119434
#	132105
#	143615
#	156706
#	169146
#	182072
#	198084
#	211662
#	222949
#	233412
#	244586
#
# Disc length: 3424 seconds
#
# Revision: 0
# Processed by: cddbd v1.5PL3 Copyright (c) Steve Scherf et al.
# Submitted via: CDex 1.51
#
DISCID=170d5e14
DTITLE=Various Artist - It Had To Be You
DYEAR=2001
DGENRE=Blues
TTITLE0=Tony Christie - The Most Beautiful Girl In The World
TTITLE1=Al Martino - Spanish Eyes
TTITLE2=Julie London - Baby Won't You Please Come Home
TTITLE3=Bobby Darrin - Fly Me To The Moon
TTITLE4=Tony Bennett and Count Basie - Anything Goes
TTITLE5=Peggy Lee - Mr Wonderful
TTITLE6=Bing Crosby - In The Cool Cool Cool Of The Evening
TTITLE7=Andy Williams - Romeo And Juliet
TTITLE8=Vikki Carr - Can't Take My Eyes Off You
TTITLE9=Matt Monro - Born Free
TTITLE10=Jack Jones - True Love
TTITLE11=Jeri Southern - Try A Little Tenderness
TTITLE12=Nelson Riddle - Isn't This A Lovely Day
TTITLE13=Judy Garland - Embraceable You
TTITLE14=Liza Minnelli - It Had To Be You
TTITLE15=Bob Hope and Shirley Ross - Two Sleepy People
TTITLE16=Rosemary Clooney - Love Look Away
TTITLE17=Chet Baker - My Funny Valentine
TTITLE18=Kathy Kirby - Secret Love
TTITLE19=Danny Williams - Moon River
EXTD=YEAR: 2001
EXTT0=
EXTT1=
EXTT2=
EXTT3=
EXTT4=
EXTT5=
EXTT6=
EXTT7=
EXTT8=
EXTT9=
EXTT10=
EXTT11=
EXTT12=
EXTT13=
EXTT14=
EXTT15=
EXTT16=
EXTT17=
EXTT18=
EXTT19=
PLAYORDER=
